<svg viewBox="0 0 900 600" xmlns="http://www.w3.org/2000/svg">
  <!-- Background -->
  <rect width="900" height="600" fill="#f8f9fa" rx="10" ry="10"/>
  
  <!-- Title -->
  <text x="450" y="40" font-family="Arial" font-size="28" text-anchor="middle" font-weight="bold">Weather ETL Pipeline Architecture</text>
  
  <!-- Data Flow Arrows -->
  <defs>
    <marker id="arrowhead" markerWidth="10" markerHeight="7" refX="9" refY="3.5" orient="auto">
      <polygon points="0 0, 10 3.5, 0 7" fill="#555"/>
    </marker>
  </defs>
  
  <!-- Data Source Section -->
  <rect x="50" y="100" width="200" height="120" fill="#e6f7ff" stroke="#1890ff" stroke-width="2" rx="8" ry="8"/>
  <text x="150" y="130" font-family="Arial" font-size="20" text-anchor="middle" font-weight="bold">Data Source</text>
  <rect x="75" y="145" width="150" height="60" fill="#ffffff" stroke="#1890ff" stroke-width="1" rx="4" ry="4"/>
  <text x="150" y="175" font-family="Arial" font-size="16" text-anchor="middle">OpenWeatherMap API</text>
  
  <!-- Extract Section -->
  <rect x="300" y="100" width="200" height="120" fill="#f6ffed" stroke="#52c41a" stroke-width="2" rx="8" ry="8"/>
  <text x="400" y="130" font-family="Arial" font-size="20" text-anchor="middle" font-weight="bold">Extract</text>
  <rect x="325" y="145" width="150" height="60" fill="#ffffff" stroke="#52c41a" stroke-width="1" rx="4" ry="4"/>
  <text x="400" y="175" font-family="Arial" font-size="16" text-anchor="middle">extract.py</text>
  <text x="400" y="195" font-family="Arial" font-size="12" text-anchor="middle">Raw JSON Data</text>
  
  <!-- Transform Section -->
  <rect x="550" y="100" width="200" height="120" fill="#fff2e8" stroke="#fa8c16" stroke-width="2" rx="8" ry="8"/>
  <text x="650" y="130" font-family="Arial" font-size="20" text-anchor="middle" font-weight="bold">Transform</text>
  <rect x="575" y="145" width="150" height="60" fill="#ffffff" stroke="#fa8c16" stroke-width="1" rx="4" ry="4"/>
  <text x="650" y="175" font-family="Arial" font-size="16" text-anchor="middle">transform.py</text>
  <text x="650" y="195" font-family="Arial" font-size="12" text-anchor="middle">Cleaned Data</text>
  
  <!-- Load Section -->
  <rect x="650" y="280" width="200" height="120" fill="#f9f0ff" stroke="#722ed1" stroke-width="2" rx="8" ry="8"/>
  <text x="750" y="310" font-family="Arial" font-size="20" text-anchor="middle" font-weight="bold">Load</text>
  <rect x="675" y="325" width="150" height="60" fill="#ffffff" stroke="#722ed1" stroke-width="1" rx="4" ry="4"/>
  <text x="750" y="355" font-family="Arial" font-size="16" text-anchor="middle">load.py</text>
  <text x="750" y="375" font-family="Arial" font-size="12" text-anchor="middle">Database Operations</text>
  
  <!-- Database Section -->
  <rect x="400" y="280" width="200" height="120" fill="#e8e8e8" stroke="#595959" stroke-width="2" rx="8" ry="8"/>
  <text x="500" y="310" font-family="Arial" font-size="20" text-anchor="middle" font-weight="bold">Storage</text>
  <rect x="425" y="325" width="150" height="60" fill="#ffffff" stroke="#595959" stroke-width="1" rx="4" ry="4"/>
  <text x="500" y="355" font-family="Arial" font-size="16" text-anchor="middle">SQLite Database</text>
  <text x="500" y="375" font-family="Arial" font-size="12" text-anchor="middle">weather_data.db</text>
  
  <!-- Analysis Section -->
  <rect x="150" y="280" width="200" height="120" fill="#fcffe6" stroke="#a0d911" stroke-width="2" rx="8" ry="8"/>
  <text x="250" y="310" font-family="Arial" font-size="20" text-anchor="middle" font-weight="bold">Analysis</text>
  <rect x="175" y="325" width="150" height="60" fill="#ffffff" stroke="#a0d911" stroke-width="1" rx="4" ry="4"/>
  <text x="250" y="355" font-family="Arial" font-size="16" text-anchor="middle">exploration.ipynb</text>
  <text x="250" y="375" font-family="Arial" font-size="12" text-anchor="middle">Visualization</text>
  
  <!-- Orchestration Section -->
  <rect x="300" y="450" width="300" height="120" fill="#fff0f6" stroke="#eb2f96" stroke-width="2" rx="8" ry="8"/>
  <text x="450" y="480" font-family="Arial" font-size="20" text-anchor="middle" font-weight="bold">Orchestration</text>
  <rect x="325" y="495" width="120" height="60" fill="#ffffff" stroke="#eb2f96" stroke-width="1" rx="4" ry="4"/>
  <text x="385" y="525" font-family="Arial" font-size="16" text-anchor="middle">main.py</text>
  <text x="385" y="545" font-family="Arial" font-size="12" text-anchor="middle">Pipeline Execution</text>
  
  <rect x="455" y="495" width="120" height="60" fill="#ffffff" stroke="#eb2f96" stroke-width="1" rx="4" ry="4"/>
  <text x="515" y="525" font-family="Arial" font-size="16" text-anchor="middle">scheduler.py</text>
  <text x="515" y="545" font-family="Arial" font-size="12" text-anchor="middle">Automated Runs</text>
  
  <!-- Configuration Section -->
  <rect x="50" y="450" width="200" height="120" fill="#e6fffb" stroke="#13c2c2" stroke-width="2" rx="8" ry="8"/>
  <text x="150" y="480" font-family="Arial" font-size="20" text-anchor="middle" font-weight="bold">Configuration</text>
  <rect x="75" y="495" width="150" height="60" fill="#ffffff" stroke="#13c2c2" stroke-width="1" rx="4" ry="4"/>
  <text x="150" y="525" font-family="Arial" font-size="16" text-anchor="middle">config.py</text>
  <text x="150" y="545" font-family="Arial" font-size="12" text-anchor="middle">Keys, URLs, Settings</text>
  
  <!-- Data Flow Arrows -->
  <!-- Extract Flow -->
  <line x1="250" y1="160" x2="300" y2="160" stroke="#1890ff" stroke-width="3" marker-end="url(#arrowhead)"/>
  <line x1="500" y1="160" x2="550" y2="160" stroke="#52c41a" stroke-width="3" marker-end="url(#arrowhead)"/>
  <line x1="650" y1="220" x2="700" y2="280" stroke="#fa8c16" stroke-width="3" marker-end="url(#arrowhead)"/>
  <line x1="650" y1="340" x2="600" y2="340" stroke="#722ed1" stroke-width="3" marker-end="url(#arrowhead)"/>
  <line x1="400" y1="340" x2="350" y2="340" stroke="#595959" stroke-width="3" marker-end="url(#arrowhead)"/>
  
  <!-- Orchestration Flow -->
  <line x1="300" y1="520" x2="150" y2="520" stroke="#eb2f96" stroke-width="2" stroke-dasharray="5,5"/>
  <line x1="450" y1="450" x2="450" y2="220" stroke="#eb2f96" stroke-width="2" stroke-dasharray="5,5"/>
  <line x1="250" y1="400" x2="250" y2="450" stroke="#a0d911" stroke-width="2" stroke-dasharray="5,5"/>
  <line x1="650" y1="220" x2="650" y2="450" stroke="#fa8c16" stroke-width="2" stroke-dasharray="5,5"/>
  
  <!-- Legend -->
  <rect x="650" y="450" width="200" height="120" fill="#f5f5f5" stroke="#d9d9d9" stroke-width="1" rx="5" ry="5"/>
  <text x="750" y="470" font-family="Arial" font-size="14" text-anchor="middle" font-weight="bold">Legend</text>
  
  <line x1="670" y1="490" x2="690" y2="490" stroke="#555" stroke-width="3" marker-end="url(#arrowhead)"/>
  <text x="750" y="495" font-family="Arial" font-size="12" text-anchor="middle">Data Flow</text>
  
  <line x1="670" y1="520" x2="690" y2="520" stroke="#555" stroke-width="2" stroke-dasharray="5,5"/>
  <text x="750" y="525" font-family="Arial" font-size="12" text-anchor="middle">Control Flow</text>
  
  <rect x="670" y="540" width="15" height="15" fill="#ffffff" stroke="#555" stroke-width="1"/>
  <text x="750" y="550" font-family="Arial" font-size="12" text-anchor="middle">Component</text>
</svg>